<mxfile host="app.diagrams.net" modified="2024-05-31T05:21:54.046Z" agent="Mozilla/5.0 (Windows NT 10.0; Win64; x64; rv:126.0) Gecko/20100101 Firefox/126.0" version="24.4.10" etag="pHM1bfDqsel9QFoKG0eE" type="github">
  <diagram name="Page-1" id="d9vIX-k0XKsGnDG7MgUr">
    <mxGraphModel>
      <root>
        <mxCell id="0" />
        <mxCell id="1" parent="0" />
      </root>
    </mxGraphModel>
  </diagram>
</mxfile>
